# File created by Blade
# Date/Time:  Tue Apr 07 20:45:22 2015
# Frame Rate: 120.000 fps
#------------------------------------------------------
:FULLY-SPECIFIED
:DEGREES
937
root 1.355614 33.645270 -1.312727 9.800350 3.605297 -3.605080
Spine -8.042207 -3.877217 -0.258170
Head 13.528302 -4.035463 -0.271796
LeftShoulder -22.335771 37.392944 22.987077
LeftArm 56.758853 -59.798174 -54.500565
LeftForeArm 15.017063 0.000000 3.634082
LeftHand 7.832330 -0.000000 13.882747
LeftHandThumb1 -26.253704 0.000000 33.147579
RightShoulder -8.149769 4.021729 -31.990529
RightArm 6.228916 22.898288 43.182483
RightForeArm -13.363614 0.000000 4.599958
RightHand 5.920965 -0.000000 -8.870535
RightHandThumb1 -24.326973 -0.000000 -32.862282
LeftUpLeg -3.723631 -9.050293 4.678344
LeftLeg 1.058938 -0.000000 -0.000000
LeftFoot 0.021860 2.560192 -19.929812
LeftToeBase -14.947555 -0.000000 0.000000
RightUpLeg -5.001757 -4.569363 5.289472
RightLeg 1.057580 -0.000000 -0.000000
RightFoot 2.877127 -6.831912 7.715399
RightToeBase -9.935750 -0.000000 0.000000
938
root 1.316657 33.635750 -1.319588 9.724566 3.650129 -3.476744
Spine -8.031116 -3.942068 -0.405324
Head 13.547143 -4.037150 -0.211481
LeftShoulder -22.193689 37.224386 23.142856
LeftArm 56.375965 -59.778075 -54.013100
LeftForeArm 14.910466 -0.000000 3.582262
LeftHand 7.816600 0.000000 13.798898
LeftHandThumb1 -26.253704 0.000000 33.147579
RightShoulder -8.093074 4.228690 -32.061279
RightArm 6.032355 23.043106 43.020069
RightForeArm -13.322210 -0.000000 4.584165
RightHand 5.604244 -0.000000 -8.569218
RightHandThumb1 -24.326973 -0.000000 -32.862282
LeftUpLeg -3.729322 -9.450385 4.608150
LeftLeg 1.150571 -0.000000 -0.000000
LeftFoot -0.504580 2.901340 -20.185233
LeftToeBase -14.173464 -0.000000 0.000000
RightUpLeg -4.846703 -4.632064 5.245727
RightLeg 0.905138 -0.000000 -0.000000
RightFoot 2.741581 -6.857727 7.723951
RightToeBase -9.797269 -0.000000 0.000000
939
root 1.272763 33.617473 -1.326954 9.645844 3.738043 -3.370278
Spine -8.006575 -4.014240 -0.559319
Head 13.520696 -4.058694 -0.064307
LeftShoulder -22.166235 37.213520 23.225370
LeftArm 56.477802 -59.819370 -53.871897
LeftForeArm 14.862670 -0.000000 3.504093
LeftHand 7.546240 -0.000000 13.495719
LeftHandThumb1 -26.253704 0.000000 33.147579
RightShoulder -8.147467 4.302690 -32.121800
RightArm 6.053305 23.133608 42.971371
RightForeArm -13.201056 0.000000 4.508626
RightHand 5.707769 -0.000000 -8.661631
RightHandThumb1 -24.326973 -0.000000 -32.862282
LeftUpLeg -3.715886 -9.836881 4.518283
LeftLeg 1.208959 -0.000000 -0.000000
LeftFoot -1.144260 3.407373 -19.980076
LeftToeBase -13.391368 -0.000000 0.000000
RightUpLeg -4.685582 -4.712267 5.242822
RightLeg 0.754298 -0.000000 -0.000000
RightFoot 2.522480 -6.923774 7.747659
RightToeBase -9.644204 -0.000000 0.000000
940
root 1.236101 33.591795 -1.335137 9.553717 3.821866 -3.216419
Spine -7.964368 -4.108547 -0.752201
Head 13.479008 -4.102340 0.072775
LeftShoulder -22.082263 37.116760 23.347350
LeftArm 56.441437 -59.900053 -53.672513
LeftForeArm 14.792713 -0.000000 3.476440
LeftHand 7.583278 0.000000 13.717847
LeftHandThumb1 -26.253704 0.000000 33.147579
RightShoulder -8.143205 4.371274 -32.180214
RightArm 6.006932 23.279311 42.892120
RightForeArm -13.159334 0.000000 4.579989
RightHand 5.378154 -0.000000 -8.385885
RightHandThumb1 -24.326973 -0.000000 -32.862282
LeftUpLeg -3.682269 -10.225517 4.392004
LeftLeg 1.242937 -0.000000 -0.000000
LeftFoot -1.759460 3.743124 -19.846362
LeftToeBase -12.759101 -0.000000 0.000000
RightUpLeg -4.539070 -4.825519 5.180874
RightLeg 0.680806 -0.000000 -0.000000
RightFoot 2.165605 -6.934045 7.770032
RightToeBase -9.382027 -0.000000 0.000000
941
root 1.203431 33.558465 -1.347758 9.501914 3.881811 -3.027684
Spine -7.952411 -4.146396 -0.978407
Head 13.402524 -4.140895 0.186536
LeftShoulder -22.058171 37.122982 23.374226
LeftArm 56.558454 -60.012188 -53.505750
LeftForeArm 14.676262 -0.000000 3.453887
LeftHand 7.482445 -0.000000 13.797273
LeftHandThumb1 -26.253704 0.000000 33.147579
RightShoulder -8.174416 4.487321 -32.269536
RightArm 5.903667 23.327673 42.779800
RightForeArm -12.994419 -0.000000 4.630557
RightHand 5.357729 0.000000 -8.339104
RightHandThumb1 -24.326973 -0.000000 -32.862282
LeftUpLeg -3.691135 -10.654550 4.233017
LeftLeg 1.271177 -0.000000 -0.000000
LeftFoot -2.431246 4.058316 -19.760765
LeftToeBase -12.116895 -0.000000 0.000000
RightUpLeg -4.431893 -4.840509 5.067019
RightLeg 0.603454 -0.000000 -0.000000
RightFoot 1.726159 -6.991955 7.816149
RightToeBase -9.137237 -0.000000 0.000000
942
root 1.165236 33.516895 -1.363231 9.468801 3.915045 -2.910994
Spine -7.962240 -4.140316 -1.148315
Head 13.300130 -4.278884 0.309197
LeftShoulder -21.971803 36.977681 23.532861
LeftArm 56.551714 -60.068933 -53.318416
LeftForeArm 14.696488 0.000000 3.481010
LeftHand 7.442899 0.000000 13.832512
LeftHandThumb1 -26.253704 0.000000 33.147579
RightShoulder -8.202119 4.498643 -32.345694
RightArm 5.881809 23.559982 42.719855
RightForeArm -13.003957 -0.000000 4.718712
RightHand 5.166463 0.000000 -8.174325
RightHandThumb1 -24.326973 -0.000000 -32.862282
LeftUpLeg -3.697520 -10.927928 4.131137
LeftLeg 1.258004 -0.000000 -0.000000
LeftFoot -3.148261 4.368989 -19.492911
LeftToeBase -11.507131 -0.000000 0.000000
RightUpLeg -4.364943 -4.843257 5.025234
RightLeg 0.555519 -0.000000 -0.000000
RightFoot 1.214236 -6.982213 7.926830
RightToeBase -8.784313 -0.000000 0.000000
943
root 1.132138 33.468134 -1.375463 9.367562 3.932176 -2.805139
Spine -7.901210 -4.137268 -1.274823
Head 13.196497 -4.313795 0.336352
LeftShoulder -21.954313 36.938627 23.542759
LeftArm 56.633544 -60.191218 -53.127767
LeftForeArm 14.611706 -0.000000 3.492318
LeftHand 7.433395 0.000000 13.983892
LeftHandThumb1 -26.253704 0.000000 33.147579
RightShoulder -8.217277 4.563616 -32.447850
RightArm 5.849481 23.642609 42.606606
RightForeArm -12.920151 -0.000000 4.758721
RightHand 5.090136 -0.000000 -8.002930
RightHandThumb1 -24.326973 -0.000000 -32.862282
LeftUpLeg -3.581739 -11.127599 4.007021
LeftLeg 1.166540 -0.000000 -0.000000
LeftFoot -3.873839 4.681460 -19.180560
LeftToeBase -10.749010 -0.000000 0.000000
RightUpLeg -4.206694 -4.846163 4.965795
RightLeg 0.482937 -0.000000 -0.000000
RightFoot 0.641607 -6.903382 8.106492
RightToeBase -8.402266 -0.000000 0.000000
944
root 1.097906 33.412998 -1.391721 9.279373 3.946801 -2.772363
Spine -7.831511 -4.071375 -1.326592
Head 13.001910 -4.456296 0.396630
LeftShoulder -21.903594 36.843333 23.626761
LeftArm 56.797784 -60.310545 -53.122271
LeftForeArm 14.620483 -0.000000 3.579891
LeftHand 7.428006 -0.000000 14.094719
LeftHandThumb1 -26.253704 0.000000 33.147579
RightShoulder -8.337750 4.560452 -32.552581
RightArm 5.967871 23.783336 42.551108
RightForeArm -12.925122 -0.000000 4.751175
RightHand 4.969283 -0.000000 -7.822634
RightHandThumb1 -24.326973 -0.000000 -32.862282
LeftUpLeg -3.490742 -11.186383 3.932020
LeftLeg 1.112720 -0.000000 -0.000000
LeftFoot -4.604280 4.972244 -18.589592
LeftToeBase -10.316446 -0.000000 0.000000
RightUpLeg -4.066034 -4.805487 4.974010
RightLeg 0.412803 -0.000000 -0.000000
RightFoot 0.001975 -6.806112 8.349761
RightToeBase -7.833722 -0.000000 0.000000
945
root 1.061876 33.352182 -1.409047 9.182159 3.919458 -2.791655
Spine -7.757172 -4.005256 -1.313492
Head 12.795482 -4.525167 0.416311
LeftShoulder -21.887368 36.799488 23.652366
LeftArm 56.938419 -60.476252 -53.097941
LeftForeArm 14.649124 -0.000000 3.682996
LeftHand 7.208944 0.000000 14.135281
LeftHandThumb1 -26.253704 0.000000 33.147579
RightShoulder -8.382173 4.641184 -32.652606
RightArm 6.006437 23.874665 42.425294
RightForeArm -12.927529 -0.000000 4.746185
RightHand 4.771983 -0.000000 -7.742005
RightHandThumb1 -24.326973 -0.000000 -32.862282
LeftUpLeg -3.334912 -11.494399 3.951902
LeftLeg 0.987728 -0.000000 -0.000000
LeftFoot -5.369541 5.321388 -18.202473
LeftToeBase -9.864780 -0.000000 0.000000
RightUpLeg -3.949849 -4.877855 5.023360
RightLeg 0.400657 -0.000000 -0.000000
RightFoot -0.641960 -6.474095 8.503111
RightToeBase -7.360757 -0.000000 0.000000
946
root 1.035654 33.288044 -1.427796 9.110579 3.854348 -2.788715
Spine -7.719983 -3.926557 -1.285946
Head 12.624875 -4.554160 0.351311
LeftShoulder -21.882944 36.642947 23.688187
LeftArm 56.899760 -60.516231 -52.914587
LeftForeArm 14.692756 -0.000000 3.815217
LeftHand 7.088013 0.000000 14.339879
LeftHandThumb1 -26.253704 0.000000 33.147579
RightShoulder -8.410191 4.768836 -32.781265
RightArm 6.037066 23.942670 42.291811
RightForeArm -12.947019 -0.000000 4.717352
RightHand 4.625918 0.000000 -7.749755
RightHandThumb1 -24.326973 -0.000000 -32.862282
LeftUpLeg -3.211777 -11.764545 3.963843
LeftLeg 0.948616 -0.000000 -0.000000
LeftFoot -6.099327 5.493313 -18.049197
LeftToeBase -9.880354 -0.000000 0.000000
RightUpLeg -3.807636 -4.848175 5.016968
RightLeg 0.293355 -0.000000 -0.000000
RightFoot -1.280045 -6.164185 8.663595
RightToeBase -6.978448 -0.000000 0.000000
947
root 1.006109 33.222695 -1.449888 9.050277 3.740378 -2.870708
Spine -7.677453 -3.781674 -1.181432
Head 12.387934 -4.625104 0.309234
LeftShoulder -21.946682 36.547921 23.657149
LeftArm 57.080453 -60.591213 -52.898758
LeftForeArm 14.918320 0.000000 3.916561
LeftHand 6.792425 -0.000000 14.124194
LeftHandThumb1 -26.253704 0.000000 33.147579
RightShoulder -8.489405 4.949248 -32.900808
RightArm 6.103030 23.967728 42.162251
RightForeArm -12.916343 -0.000000 4.637469
RightHand 4.596828 -0.000000 -7.717184
RightHandThumb1 -24.326973 -0.000000 -32.862282
LeftUpLeg -3.115569 -11.881793 4.051912
LeftLeg 0.986116 -0.000000 -0.000000
LeftFoot -6.851972 5.568953 -17.684486
LeftToeBase -10.009901 -0.000000 0.000000
RightUpLeg -3.654950 -4.670403 5.082492
RightLeg 0.119501 -0.000000 -0.000000
RightFoot -1.872207 -5.916006 8.915747
RightToeBase -6.570813 -0.000000 0.000000
948
root 0.980787 33.157760 -1.473298 8.988368 3.575195 -2.940301
Spine -7.631883 -3.613271 -1.088187
Head 12.160763 -4.632950 0.269720
LeftShoulder -22.044167 36.520269 23.572956
LeftArm 57.247038 -60.667306 -52.866486
LeftForeArm 14.954755 -0.000000 4.047574
LeftHand 6.851728 -0.000000 14.734171
LeftHandThumb1 -26.253704 0.000000 33.147579
RightShoulder -8.531359 5.127754 -33.034143
RightArm 6.132088 24.059743 42.083793
RightForeArm -12.892477 -0.000000 4.644283
RightHand 4.455457 0.000000 -7.688554
RightHandThumb1 -24.326973 -0.000000 -32.862282
LeftUpLeg -2.990032 -11.923890 4.100206
LeftLeg 0.986671 -0.000000 -0.000000
LeftFoot -7.542851 5.708041 -17.311010
LeftToeBase -10.280247 -0.000000 0.000000
RightUpLeg -3.522007 -4.493191 5.134122
RightLeg -0.008897 -0.000000 0.000000
RightFoot -2.461962 -5.677296 8.988489
RightToeBase -6.254262 -0.000000 0.000000
